<svg width="900" height="1400" viewBox="0 0 900 1400" fill="none" xmlns="http://www.w3.org/2000/svg">
  <rect width="900" height="1400" rx="34" fill="#E9D5BD"/>
  <rect x="60" y="60" width="780" height="1280" rx="22" fill="#FDF9F2"/>
  <rect x="120" y="120" width="660" height="1160" rx="22" fill="url(#paint0_linear_1_2)"/>
  <path d="M222 274H678" stroke="#F8F1E4" stroke-width="18" stroke-linecap="round"/>
  <path d="M222 350H560" stroke="#F8F1E4" stroke-width="18" stroke-linecap="round" opacity="0.76"/>
  <path d="M226 1010H674" stroke="#F8F1E4" stroke-width="12" stroke-linecap="round" opacity="0.78"/>
  <path d="M226 1058H626" stroke="#F8F1E4" stroke-width="12" stroke-linecap="round" opacity="0.55"/>
  <circle cx="451" cy="690" r="184" fill="#F7E4B8"/>
  <path d="M450.5 534C503.676 534 547 577.324 547 630.5C547 683.676 503.676 727 450.5 727C397.324 727 354 683.676 354 630.5C354 577.324 397.324 534 450.5 534Z" fill="#B04E2B"/>
  <path d="M361 850C391.625 792.653 449.482 756 513 756C576.518 756 634.375 792.653 665 850" stroke="#6B2D1C" stroke-width="28" stroke-linecap="round"/>
  <defs>
    <linearGradient id="paint0_linear_1_2" x1="120" y1="120" x2="780" y2="1280" gradientUnits="userSpaceOnUse">
      <stop stop-color="#D06E40"/>
      <stop offset="1" stop-color="#77341F"/>
    </linearGradient>
  </defs>
</svg>
